<svg fill="none" xmlns="http://www.w3.org/2000/svg">
  <symbol id="logo" viewBox="0 0 200 24">
    <path
        d="M17.28 19.712c.048 0 .072.048.072.144 0 .096-.024.144-.072.144-.56 0-1.008-.008-1.344-.024l-1.848-.024-2.16.024c-.288.016-.68.024-1.176.024-.048 0-.072-.048-.072-.144 0-.096.024-.144.072-.144.592 0 1.024-.04 1.296-.12.272-.08.456-.232.552-.456.096-.224.144-.584.144-1.08V8.96L5.28 16.952v1.104c0 .48.048.84.144 1.08.096.224.28.376.552.456.272.08.704.12 1.296.12.032 0 .048.048.048.144 0 .096-.016.144-.048.144-.56 0-1.008-.008-1.344-.024l-2.088-.024-1.8.024c-.32.016-.76.024-1.32.024-.032 0-.048-.048-.048-.144 0-.096.016-.144.048-.144.56 0 .968-.04 1.224-.12a.8.8 0 00.528-.456c.096-.24.144-.6.144-1.08V6.944c0-.48-.048-.832-.144-1.056a.8.8 0 00-.528-.456c-.24-.096-.632-.144-1.176-.144-.048 0-.072-.048-.072-.144C.696 5.048.72 5 .768 5l1.296.024c.736.032 1.328.048 1.776.048.608 0 1.312-.016 2.112-.048L7.272 5c.032 0 .048.048.048.144 0 .096-.016.144-.048.144-.576 0-1 .048-1.272.144a.953.953 0 00-.576.504c-.096.224-.144.576-.144 1.056v8.976L12.744 8V6.992c0-.48-.048-.832-.144-1.056-.096-.24-.28-.408-.552-.504-.272-.096-.704-.144-1.296-.144-.048 0-.072-.048-.072-.144 0-.096.024-.144.072-.144l1.176.024c.8.032 1.52.048 2.16.048.432 0 1.048-.016 1.848-.048L17.28 5c.048 0 .072.048.072.144 0 .096-.024.144-.072.144-.544 0-.944.048-1.2.144a.8.8 0 00-.528.456c-.096.224-.144.576-.144 1.056v11.112c0 .48.048.84.144 1.08a.8.8 0 00.528.456c.256.08.656.12 1.2.12zm5.47-1.752c0 .512.057.888.169 1.128.112.224.32.384.624.48.32.096.824.144 1.512.144.048 0 .072.048.072.144 0 .096-.024.144-.072.144-.656 0-1.168-.008-1.536-.024l-2.088-.024-1.752.024c-.32.016-.752.024-1.296.024-.048 0-.072-.048-.072-.144 0-.096.024-.144.072-.144.512 0 .88-.04 1.104-.12a.72.72 0 00.48-.456c.08-.24.12-.6.12-1.08V6.944c0-.48-.04-.832-.12-1.056a.72.72 0 00-.48-.456c-.24-.096-.608-.144-1.104-.144-.048 0-.072-.048-.072-.144 0-.096.024-.144.072-.144l1.272.024c.736.032 1.32.048 1.752.048.384 0 .84-.024 1.368-.072.208-.016.472-.032.792-.048.32-.016.688-.024 1.104-.024 1.632 0 2.92.344 3.864 1.032.944.672 1.416 1.72 1.416 3.144 0 .992-.256 1.832-.768 2.52a4.806 4.806 0 01-1.992 1.56c-.8.352-1.624.528-2.472.528-.432 0-.808-.04-1.128-.12-.032 0-.048-.04-.048-.12 0-.048.008-.096.024-.144.032-.048.064-.064.096-.048.24.064.512.096.816.096.736 0 1.344-.344 1.824-1.032.496-.688.744-1.664.744-2.928s-.272-2.24-.816-2.928c-.528-.688-1.304-1.032-2.328-1.032-.448 0-.752.104-.912.312-.16.208-.24.616-.24 1.224V17.96zm24.883 1.752c.047 0 .072.048.072.144 0 .096-.024.144-.072.144-.56 0-1.009-.008-1.345-.024l-1.847-.024-2.16.024c-.288.016-.68.024-1.176.024-.048 0-.072-.048-.072-.144 0-.096.023-.144.072-.144.592 0 1.024-.04 1.296-.12.271-.08.455-.232.551-.456.096-.224.145-.584.145-1.08V8.96l-7.465 7.992v1.104c0 .48.049.84.145 1.08.096.224.28.376.551.456.272.08.704.12 1.296.12.032 0 .048.048.048.144 0 .096-.015.144-.047.144-.56 0-1.008-.008-1.344-.024l-2.088-.024-1.8.024c-.32.016-.76.024-1.32.024-.032 0-.049-.048-.049-.144 0-.096.017-.144.049-.144.56 0 .968-.04 1.224-.12a.8.8 0 00.528-.456c.095-.24.143-.6.143-1.08V6.944c0-.48-.048-.832-.144-1.056a.8.8 0 00-.527-.456c-.24-.096-.632-.144-1.176-.144-.048 0-.072-.048-.072-.144 0-.096.024-.144.072-.144l1.296.024c.736.032 1.328.048 1.776.048.608 0 1.312-.016 2.111-.048L37.624 5c.032 0 .048.048.048.144 0 .096-.015.144-.047.144-.577 0-1 .048-1.273.144a.953.953 0 00-.575.504c-.096.224-.145.576-.145 1.056v8.976L43.097 8V6.992c0-.48-.049-.832-.145-1.056-.096-.24-.28-.408-.551-.504-.273-.096-.705-.144-1.297-.144-.047 0-.072-.048-.072-.144 0-.096.025-.144.073-.144l1.176.024c.8.032 1.52.048 2.16.048.431 0 1.047-.016 1.847-.048L47.633 5c.047 0 .072.048.072.144 0 .096-.024.144-.072.144-.544 0-.945.048-1.2.144a.8.8 0 00-.529.456c-.096.224-.144.576-.144 1.056v11.112c0 .48.049.84.145 1.08a.8.8 0 00.527.456c.256.08.657.12 1.2.12zm17.854 0c.048 0 .072.048.072.144 0 .096-.024.144-.072.144-.56 0-1.008-.008-1.344-.024l-1.848-.024-2.16.024c-.288.016-.68.024-1.176.024-.048 0-.072-.048-.072-.144 0-.096.024-.144.072-.144.592 0 1.024-.04 1.296-.12.272-.08.456-.232.552-.456.096-.224.144-.584.144-1.08v-5.52H53.2v5.52c0 .48.048.84.144 1.08.096.224.28.376.552.456.272.08.704.12 1.296.12.032 0 .048.048.048.144 0 .096-.016.144-.048.144-.56 0-1.008-.008-1.344-.024l-2.088-.024-1.8.024c-.32.016-.76.024-1.32.024-.032 0-.048-.048-.048-.144 0-.096.016-.144.048-.144.56 0 .968-.04 1.224-.12a.8.8 0 00.528-.456c.096-.24.144-.6.144-1.08V6.944c0-.48-.048-.832-.144-1.056a.8.8 0 00-.528-.456c-.24-.096-.632-.144-1.176-.144-.048 0-.072-.048-.072-.144 0-.096.024-.144.072-.144l1.296.024c.736.032 1.328.048 1.776.048.608 0 1.312-.016 2.112-.048L55.191 5c.032 0 .048.048.048.144 0 .096-.016.144-.048.144-.576 0-1 .048-1.272.144a.953.953 0 00-.576.504c-.096.224-.144.576-.144 1.056v4.872h7.752V6.992c0-.48-.048-.832-.144-1.056-.096-.24-.28-.408-.552-.504-.272-.096-.704-.144-1.296-.144-.048 0-.072-.048-.072-.144 0-.096.024-.144.072-.144l1.176.024c.8.032 1.52.048 2.16.048.432 0 1.048-.016 1.848-.048L65.487 5c.048 0 .072.048.072.144 0 .096-.024.144-.072.144-.544 0-.952.048-1.224.144a.8.8 0 00-.528.456c-.08.224-.12.576-.12 1.056v11.112c0 .48.04.84.12 1.08a.8.8 0 00.528.456c.256.08.664.12 1.224.12zm17.489 0c.08 0 .12.048.12.144 0 .096-.04.144-.12.144-.32 0-.817-.016-1.489-.048a37.983 37.983 0 00-1.511-.048c-.4 0-.888.016-1.465.048-.543.032-.975.048-1.295.048-.064 0-.096-.048-.096-.144 0-.096.031-.144.096-.144.416 0 .712-.04.888-.12a.496.496 0 00.287-.48c0-.272-.16-.728-.48-1.368l-2.496-4.92h-4.272l-1.704 3.768c-.207.464-.311.896-.311 1.296 0 .576.2 1.024.6 1.344.416.32.968.48 1.656.48.08 0 .12.048.12.144 0 .096-.04.144-.12.144-.288 0-.704-.016-1.249-.048a30.672 30.672 0 00-1.584-.048c-.431 0-.951.016-1.56.048-.543.032-.984.048-1.32.048-.064 0-.096-.048-.096-.144 0-.096.032-.144.096-.144.448 0 .825-.088 1.128-.264.304-.192.608-.52.912-.984.305-.48.665-1.184 1.08-2.112L74 4.904c.031-.048.103-.072.216-.072.128 0 .2.024.216.072l6 11.808c.56 1.136 1.023 1.92 1.391 2.352.369.432.753.648 1.153.648zm-11.52-7.56h3.623L73.16 8.36l-1.704 3.792zm24.796-.576c1.344.16 2.408.608 3.192 1.344.8.736 1.2 1.648 1.2 2.736a3.79 3.79 0 01-.72 2.256c-.48.672-1.144 1.208-1.992 1.608-.848.384-1.792.576-2.832.576-.448 0-.96-.024-1.536-.072a36.564 36.564 0 00-.84-.048c-.32-.016-.68-.024-1.08-.024l-1.752.024c-.32.016-.752.024-1.296.024-.048 0-.072-.048-.072-.144 0-.096.024-.144.072-.144.464 0 .816-.04 1.056-.12a.877.877 0 00.504-.48c.112-.24.168-.592.168-1.056V6.944c0-.672-.112-1.112-.336-1.32-.224-.224-.68-.336-1.368-.336-.032 0-.048-.048-.048-.144 0-.096.016-.144.048-.144l1.272.024c.736.032 1.32.048 1.752.048.448 0 .912-.024 1.392-.072.16-.016.4-.032.72-.048.32-.016.6-.024.84-.024 1.456 0 2.584.264 3.384.792.8.528 1.2 1.296 1.2 2.304 0 .768-.256 1.464-.768 2.088-.496.624-1.216 1.112-2.16 1.464zm-2.016-6.12c-.464 0-.784.112-.96.336-.176.208-.264.608-.264 1.2v4.56l.96.024c.832 0 1.472-.312 1.92-.936.448-.624.672-1.424.672-2.4 0-.912-.2-1.6-.6-2.064-.4-.48-.976-.72-1.728-.72zm.456 14.04c2.096 0 3.144-1.088 3.144-3.264 0-1.232-.296-2.208-.888-2.928-.592-.72-1.488-1.08-2.688-1.08-.464 0-.88.016-1.248.048v5.784c0 .528.104.904.312 1.128.208.208.664.312 1.368.312zm20.898.216c.032 0 .048.048.048.144 0 .096-.016.144-.048.144a30.35 30.35 0 01-1.368-.024l-1.848-.024-1.8.024c-.304.016-.72.024-1.248.024-.048 0-.072-.048-.072-.144 0-.096.024-.144.072-.144.512 0 .88-.04 1.104-.12a.72.72 0 00.48-.456c.08-.224.12-.584.12-1.08v-5.76c-.592.128-1.152.456-1.68.984-.512.528-1.12 1.424-1.824 2.688-.816 1.424-1.392 2.4-1.728 2.928-.32.528-.544.848-.672.96-.128.096-.304.144-.528.144h-3.144c-.032 0-.048-.048-.048-.144 0-.096.016-.144.048-.144.496-.016.896-.184 1.2-.504.304-.32.72-.936 1.248-1.848l1.152-1.872c.64-1.072 1.288-1.84 1.944-2.304.656-.48 1.432-.8 2.328-.96-1.552-.144-2.736-.528-3.552-1.152-.816-.624-1.224-1.44-1.224-2.448 0-.72.216-1.36.648-1.92.448-.56 1.056-.992 1.824-1.296.768-.32 1.632-.48 2.592-.48.352 0 .768.024 1.248.072.192.016.416.032.672.048.256.016.536.024.84.024.496 0 1.112-.016 1.848-.048L115.59 5c.032 0 .048.048.048.144 0 .096-.016.144-.048.144-.592 0-1.016.048-1.272.144-.256.08-.424.232-.504.456-.08.208-.12.56-.12 1.056v11.112c0 .496.04.856.12 1.08.08.224.248.376.504.456.256.08.68.12 1.272.12zm-8.28-11.688c0 1.152.288 2.064.864 2.736.576.672 1.416 1.008 2.52 1.008h.336V6.992c0-1.168-.488-1.752-1.464-1.752-1.504 0-2.256.928-2.256 2.784zm13.873-2.472c-1.904 0-3.272 1.24-4.104 3.72-.016.048-.064.072-.144.072-.08-.016-.12-.048-.12-.096.064-.64.136-1.464.216-2.472.08-1.024.12-1.792.12-2.304 0-.08.04-.12.12-.12.096 0 .144.04.144.12 0 .352.456.528 1.368.528 1.376.048 2.984.072 4.824.072.944 0 1.944-.016 3-.048L128.239 5c.608 0 1.048-.04 1.32-.12.288-.08.472-.24.552-.48.016-.064.064-.096.144-.096.096 0 .144.032.144.096a66.21 66.21 0 00-.168 2.304 58.728 58.728 0 00-.072 2.544c0 .048-.04.072-.12.072-.08 0-.128-.024-.144-.072-.24-1.232-.688-2.152-1.344-2.76-.656-.624-1.464-.936-2.424-.936-.464 0-.776.104-.936.312-.144.192-.216.568-.216 1.128v11.064c0 .496.048.856.144 1.08.096.224.28.376.552.456.272.08.704.12 1.296.12.048 0 .072.048.072.144 0 .096-.024.144-.072.144a30.35 30.35 0 01-1.368-.024l-1.992-.024-1.944.024c-.336.016-.8.024-1.392.024-.048 0-.072-.048-.072-.144 0-.096.024-.144.072-.144.576 0 1-.04 1.272-.12.288-.08.48-.232.576-.456.112-.24.168-.6.168-1.08V6.944c0-.544-.072-.912-.216-1.104-.144-.192-.44-.288-.888-.288zm25.838 14.16c.048 0 .072.048.072.144 0 .096-.024.144-.072.144h-3.696a.959.959 0 01-.576-.192c-.16-.128-.448-.456-.864-.984-.416-.544-1.096-1.496-2.04-2.856l-.648-.912c-.56-.816-.976-1.384-1.248-1.704-.272-.336-.56-.568-.864-.696-.288-.144-.672-.216-1.152-.216v5.616c0 .48.04.84.12 1.08a.8.8 0 00.528.456c.256.08.656.12 1.2.12.048 0 .072.048.072.144 0 .096-.024.144-.072.144-.56 0-1.008-.008-1.344-.024l-1.992-.024-1.752.024c-.32.016-.752.024-1.296.024-.048 0-.072-.048-.072-.144 0-.096.024-.144.072-.144.544 0 .944-.04 1.2-.12a.8.8 0 00.528-.456c.096-.24.144-.6.144-1.08V6.944c0-.48-.048-.832-.144-1.056a.8.8 0 00-.528-.456c-.24-.096-.632-.144-1.176-.144-.048 0-.072-.048-.072-.144 0-.096.024-.144.072-.144l1.272.024c.736.032 1.32.048 1.752.048.544 0 1.216-.016 2.016-.048l1.32-.024c.048 0 .072.048.072.144 0 .096-.024.144-.072.144-.528 0-.92.048-1.176.144a.867.867 0 00-.528.504c-.096.224-.144.576-.144 1.056v5.04c.432-.016.976-.024 1.632-.024l2.52-3.456c.656-.912.984-1.672.984-2.28 0-.304-.088-.544-.264-.72-.176-.176-.416-.264-.72-.264-.032 0-.048-.048-.048-.144 0-.096.016-.144.048-.144l1.104.024c.704.032 1.328.048 1.872.048.624 0 1.272-.016 1.944-.048L146.037 5c.048 0 .072.048.072.144 0 .096-.024.144-.072.144-.704 0-1.496.256-2.376.768a7.848 7.848 0 00-2.232 1.92l-3.264 4.056c.624.032 1.136.152 1.536.36.4.192.792.504 1.176.936.4.432.96 1.152 1.68 2.16l.432.6a64.575 64.575 0 001.56 2.088c.384.464.776.832 1.176 1.104.4.272.832.416 1.296.432zm16.584 0c.048 0 .072.048.072.144 0 .096-.024.144-.072.144-.56 0-1.008-.008-1.344-.024l-1.848-.024-2.16.024c-.288.016-.68.024-1.176.024-.048 0-.072-.048-.072-.144 0-.096.024-.144.072-.144.592 0 1.024-.04 1.296-.12.272-.08.456-.232.552-.456.096-.224.144-.584.144-1.08V8.96l-7.464 7.992v1.104c0 .48.048.84.144 1.08.096.224.28.376.552.456.272.08.704.12 1.296.12.032 0 .048.048.048.144 0 .096-.016.144-.048.144-.56 0-1.008-.008-1.344-.024l-2.088-.024-1.8.024c-.32.016-.76.024-1.32.024-.032 0-.048-.048-.048-.144 0-.096.016-.144.048-.144.56 0 .968-.04 1.224-.12a.8.8 0 00.528-.456c.096-.24.144-.6.144-1.08V6.944c0-.48-.048-.832-.144-1.056a.8.8 0 00-.528-.456c-.24-.096-.632-.144-1.176-.144-.048 0-.072-.048-.072-.144 0-.096.024-.144.072-.144l1.296.024c.736.032 1.328.048 1.776.048.608 0 1.312-.016 2.112-.048l1.32-.024c.032 0 .048.048.048.144 0 .096-.016.144-.048.144-.576 0-1 .048-1.272.144a.953.953 0 00-.576.504c-.096.224-.144.576-.144 1.056v8.976L159.069 8V6.992c0-.48-.048-.832-.144-1.056-.096-.24-.28-.408-.552-.504-.272-.096-.704-.144-1.296-.144-.048 0-.072-.048-.072-.144 0-.096.024-.144.072-.144l1.176.024c.8.032 1.52.048 2.16.048.432 0 1.048-.016 1.848-.048L163.605 5c.048 0 .072.048.072.144 0 .096-.024.144-.072.144-.544 0-.944.048-1.2.144a.8.8 0 00-.528.456c-.096.224-.144.576-.144 1.056v11.112c0 .48.048.84.144 1.08a.8.8 0 00.528.456c.256.08.656.12 1.2.12zm17.855 0c.048 0 .072.048.072.144 0 .096-.024.144-.072.144-.56 0-1.008-.008-1.344-.024l-1.848-.024-2.16.024c-.288.016-.68.024-1.176.024-.048 0-.072-.048-.072-.144 0-.096.024-.144.072-.144.592 0 1.024-.04 1.296-.12.272-.08.456-.232.552-.456.096-.224.144-.584.144-1.08v-5.52h-7.752v5.52c0 .48.048.84.144 1.08.096.224.28.376.552.456.272.08.704.12 1.296.12.032 0 .048.048.048.144 0 .096-.016.144-.048.144-.56 0-1.008-.008-1.344-.024l-2.088-.024-1.8.024c-.32.016-.76.024-1.32.024-.032 0-.048-.048-.048-.144 0-.096.016-.144.048-.144.56 0 .968-.04 1.224-.12a.8.8 0 00.528-.456c.096-.24.144-.6.144-1.08V6.944c0-.48-.048-.832-.144-1.056a.8.8 0 00-.528-.456c-.24-.096-.632-.144-1.176-.144-.048 0-.072-.048-.072-.144 0-.096.024-.144.072-.144l1.296.024c.736.032 1.328.048 1.776.048.608 0 1.312-.016 2.112-.048l1.32-.024c.032 0 .048.048.048.144 0 .096-.016.144-.048.144-.576 0-1 .048-1.272.144a.953.953 0 00-.576.504c-.096.224-.144.576-.144 1.056v4.872h7.752V6.992c0-.48-.048-.832-.144-1.056-.096-.24-.28-.408-.552-.504-.272-.096-.704-.144-1.296-.144-.048 0-.072-.048-.072-.144 0-.096.024-.144.072-.144l1.176.024c.8.032 1.52.048 2.16.048.432 0 1.048-.016 1.848-.048L181.46 5c.048 0 .072.048.072.144 0 .096-.024.144-.072.144-.544 0-.952.048-1.224.144a.8.8 0 00-.528.456c-.08.224-.12.576-.12 1.056v11.112c0 .48.04.84.12 1.08a.8.8 0 00.528.456c.256.08.664.12 1.224.12zm17.488 0c.08 0 .12.048.12.144 0 .096-.04.144-.12.144-.32 0-.816-.016-1.488-.048a37.983 37.983 0 00-1.512-.048c-.4 0-.888.016-1.464.048-.544.032-.976.048-1.296.048-.064 0-.096-.048-.096-.144 0-.096.032-.144.096-.144.416 0 .712-.04.888-.12a.496.496 0 00.288-.48c0-.272-.16-.728-.48-1.368l-2.496-4.92h-4.272l-1.704 3.768c-.208.464-.312.896-.312 1.296 0 .576.2 1.024.6 1.344.416.32.968.48 1.656.48.08 0 .12.048.12.144 0 .096-.04.144-.12.144-.288 0-.704-.016-1.248-.048a30.672 30.672 0 00-1.584-.048c-.432 0-.952.016-1.56.048-.544.032-.984.048-1.32.048-.064 0-.096-.048-.096-.144 0-.096.032-.144.096-.144.448 0 .824-.088 1.128-.264.304-.192.608-.52.912-.984.304-.48.664-1.184 1.08-2.112l5.208-11.448c.032-.048.104-.072.216-.072.128 0 .2.024.216.072l6 11.808c.56 1.136 1.024 1.92 1.392 2.352.368.432.752.648 1.152.648zm-11.52-7.56h3.624l-1.92-3.792-1.704 3.792z"/>
  </symbol>
  <symbol id="stock" viewBox="0 0 40 40">
    <path
        d="M15.539 24.55v-2.723c2.006-.236 3.556-1.67 3.556-3.405 0-1.732-1.55-3.166-3.556-3.402v-4.565c1.367.206 2.402 1.133 2.402 2.243a.577.577 0 101.154 0c0-1.734-1.55-3.169-3.556-3.404V6.571a.577.577 0 10-1.154 0v2.724c-2.008.235-3.56 1.67-3.56 3.404 0 1.733 1.552 3.166 3.56 3.4v4.569c-1.37-.206-2.406-1.134-2.406-2.245a.577.577 0 10-1.154 0c0 1.736 1.552 3.171 3.56 3.405v2.723a.577.577 0 101.154 0zm2.402-6.128c0 1.11-1.034 2.037-2.402 2.245V16.18c1.368.208 2.402 1.134 2.402 2.242zM11.98 12.7c0-1.11 1.036-2.038 2.406-2.244v4.484c-1.37-.207-2.406-1.132-2.406-2.24z"/>
    <path
        d="M27.153 15.56c0-6.725-5.47-12.194-12.195-12.194-6.724 0-12.195 5.47-12.195 12.194 0 6.723 5.47 12.194 12.195 12.194 6.725 0 12.195-5.47 12.195-12.195zm-23.236 0c0-6.088 4.953-11.04 11.041-11.04C21.047 4.52 26 9.471 26 15.56c0 6.087-4.952 11.04-11.04 11.04-6.09 0-11.042-4.952-11.042-11.04zM39.207 26.686l-1.21-4.716a.578.578 0 00-.701-.415l-4.683 1.186a.577.577 0 10.283 1.118l3.348-.848-6.09 9.475-3.93-5.73a.599.599 0 00-.5-.25.578.578 0 00-.477.293l-5.284 9.355-5.583-4.085a.577.577 0 00-.77.08l-5.804 6.453a.577.577 0 10.858.772l5.455-6.066 5.686 4.16a.574.574 0 00.843-.18l5.148-9.115 3.899 5.683a.578.578 0 00.961-.015l6.572-10.225.861 3.357a.577.577 0 101.118-.287z"/>
  </symbol>
  <symbol id="timing" viewBox="0 0 40 40">
    <path
        d="M31.485 9.505h2.773a.594.594 0 000-1.188h-3.96a.594.594 0 00-.595.594v3.96a.594.594 0 101.188 0v-2.253a14.503 14.503 0 013.565 9.58A14.653 14.653 0 1119.802 5.545a.594.594 0 100-1.189 15.842 15.842 0 1015.842 15.842 15.679 15.679 0 00-4.159-10.693z"/>
    <path
        d="M9.109 20.396A10.89 10.89 0 1020 9.505 10.903 10.903 0 009.109 20.396zm20.594 0A9.703 9.703 0 1120 10.693a9.714 9.714 0 019.703 9.703z"/>
    <path
        d="M19.406 13.663v6.733a.594.594 0 001.014.42l5.148-5.149a.594.594 0 00-.84-.84l-4.134 4.135v-5.299a.594.594 0 10-1.188 0z"/>
  </symbol>
  <symbol id="yinyang" viewBox="0 0 40 40">
    <path
        d="M34.854 20.217c0-8.123-6.545-14.748-14.663-14.938-.029-.004-.057-.01-.086-.01-.029 0-.056.005-.085.005-.062 0-.124-.004-.187-.004-8.282 0-15.021 6.705-15.021 14.947 0 8.242 6.738 14.947 15.021 14.947 8.284 0 15.021-6.705 15.021-14.947zm-28.846 0c0-5.827 3.664-10.815 8.82-12.815a7.883 7.883 0 00-2.451 5.721c0 4.226 3.443 7.667 7.684 7.691l.045.002c3.602 0 6.533 2.914 6.533 6.495 0 3.546-3.18 6.657-6.805 6.657-7.624 0-13.826-6.169-13.826-13.751zM25.466 32.77c1.447-1.437 2.369-3.384 2.369-5.46 0-4.226-3.443-7.666-7.684-7.69a.56.56 0 00-.045-.002c-3.603 0-6.533-2.914-6.533-6.495 0-3.58 2.945-6.606 6.45-6.654 7.536.102 13.636 6.228 13.636 13.747 0 5.588-3.37 10.404-8.193 12.554z"/>
    <path
        d="M22.293 29.15c0-1.2-.981-2.176-2.187-2.177a2.185 2.185 0 00-2.188 2.177c0 1.203.981 2.18 2.188 2.18a2.186 2.186 0 002.187-2.18zm-3.18 0c0-.541.446-.981.992-.981.548 0 .992.44.992.98a.99.99 0 01-.991.986.99.99 0 01-.992-.986zM20.105 9.054a2.186 2.186 0 00-2.188 2.179c0 1.203.982 2.181 2.188 2.181a2.187 2.187 0 002.188-2.181c0-1.202-.981-2.18-2.188-2.18zm0 3.164a.99.99 0 01-.992-.985c0-.542.445-.984.992-.984.547 0 .992.441.992.984a.99.99 0 01-.992.985z"/>
  </symbol>
  <symbol id="startup" viewBox="0 0 40 40">
    <path
        d="M33.617 9.942c.592-2.974.855-6.814-1.255-8.22-2.11-1.407-5.553.314-8.07 2.005-2.696 1.812-5.533 4.449-6.748 6.271l-.932 1.399c-1.381-.04-6.032-.114-7.717.573-1.839.752-5.189 4.714-5.35 6.328-.058.58.231.865.408.982.345.23 1.31.314 2.527.314 1.463 0 3.287-.12 4.839-.252l-.408.612-.007.008-.004.01-2.566 3.851a7.761 7.761 0 00-.031 8.532l-1.104 1.656a2.853 2.853 0 00-.405 2.227 3.07 3.07 0 001.307 1.888 3.094 3.094 0 001.72.524c.951 0 1.873-.445 2.425-1.274l1.102-1.654c.47.089.944.133 1.415.133a7.772 7.772 0 006.454-3.449l3.188-4.785c.873 2.714 2.133 6.269 2.893 6.774.104.07.277.152.506.152.16 0 .348-.04.56-.155 1.427-.771 3.793-5.389 3.778-7.374-.013-1.82-1.876-6.085-2.443-7.342l.727-1.092c1.215-1.821 2.557-5.455 3.192-8.642zm-15.078.72c.976-1.465 3.495-3.977 6.42-5.942 3.083-2.072 5.54-2.803 6.74-2.002 1.199.799 1.47 3.346.745 6.99-.688 3.458-2.036 6.749-3.013 8.213l-6.306 9.466-7.466-4.974-.008-.006-.009-.005-3.41-2.272 5.163-7.751a.607.607 0 00.042-.063l1.102-1.655zM4.743 18.323c.189-1.016 3.01-4.595 4.604-5.247 1.147-.467 4.448-.527 6.479-.5l-3.657 5.49c-3.077.282-6.579.442-7.426.257zm4.585 6.163l2.24-3.363 2.923 1.946-5.455 8.186a6.563 6.563 0 01.292-6.769zm1.924 12.226c-.529.792-1.645.98-2.488.418a1.88 1.88 0 01-.803-1.155c-.103-.459-.02-.921.233-1.301l1.324-1.987c.008-.012.018-.025.025-.038l5.943-8.917 3.057 2.037-7.291 10.943zm8.97-4.97a6.567 6.567 0 01-6.139 2.877l5.455-8.187 2.924 1.948-2.24 3.362zm10.724-4.716c.014 1.721-2.195 5.69-3.063 6.268-.52-.756-1.71-4.023-2.627-6.95l3.657-5.489c.807 1.864 2.024 4.932 2.034 6.17z"/>
    <path
        d="M21.776 17.202a4.692 4.692 0 006.5-1.301h.002A4.697 4.697 0 0026.973 9.4a4.658 4.658 0 00-3.52-.695 4.65 4.65 0 00-2.978 1.997 4.654 4.654 0 00-.696 3.52 4.658 4.658 0 001.997 2.98zm-.306-5.837a3.465 3.465 0 012.218-1.488 3.466 3.466 0 012.622.518 3.499 3.499 0 01.972 4.843 3.497 3.497 0 01-4.842.97 3.47 3.47 0 01-1.489-2.22c-.183-.916 0-1.847.519-2.623z"/>
  </symbol>
  <symbol id="expert" viewBox="0 0 40 40">
    <path
        d="M19.26 28.44a.598.598 0 00-.599-.599H5.144c.311-5.895 5.204-10.594 11.173-10.594 2.156 0 4.25.615 6.052 1.778a.598.598 0 00.649-1.005 12.339 12.339 0 00-6.701-1.969c-6.829 0-12.385 5.558-12.385 12.388 0 .33.268.598.598.598h14.131c.33 0 .598-.268.598-.598zM16.11 14.943c3.95 0 7.165-3.215 7.165-7.167 0-3.948-3.214-7.16-7.165-7.16-3.948 0-7.16 3.212-7.16 7.16 0 3.952 3.212 7.167 7.16 7.167zm0-13.132a5.974 5.974 0 015.969 5.965 5.977 5.977 0 01-5.97 5.97c-3.288 0-5.964-2.678-5.964-5.97a5.972 5.972 0 015.965-5.965z"/>
    <path
        d="M35.822 35.47l-4.143-6.025a6.028 6.028 0 001.237-3.625 6.099 6.099 0 00-6.045-6.136c-3.346-.016-6.11 2.692-6.135 6.05a6.05 6.05 0 001.188 3.64l-4.233 5.966a.599.599 0 00.613.931l3.349-.716.588 3.146a.598.598 0 001.113.175l3.424-6.335 3.334 6.383a.598.598 0 001.116-.158l.634-3.136 3.333.762a.599.599 0 00.627-.922zM26.83 20.88h.032a4.901 4.901 0 014.858 4.931 4.851 4.851 0 01-1.458 3.449 4.86 4.86 0 01-3.434 1.408h-.037a4.899 4.899 0 01-4.86-4.926 4.905 4.905 0 014.899-4.862zm-3.724 15.94l-.39-2.088a.6.6 0 00-.713-.475l-2.448.524 3.19-4.498a6.06 6.06 0 003.088 1.492l-2.727 5.046zm8.425-2.494a.597.597 0 00-.719.464l-.42 2.084-2.656-5.084a6.028 6.028 0 003.109-1.448l3.123 4.542-2.437-.558z"/>
  </symbol>
  <symbol id="group" viewBox="0 0 40 40">
    <path
        d="M19.573 20.104c-4.85 0-8.795 3.945-8.795 8.795 0 .33.267.598.598.598H27.77c.33 0 .598-.268.598-.598 0-4.85-3.945-8.795-8.795-8.795zm-7.576 8.197c.306-3.912 3.588-7.001 7.576-7.001 3.989 0 7.27 3.09 7.576 7.001H11.997zM19.43 19.314a5.17 5.17 0 005.163-5.163 5.17 5.17 0 00-5.163-5.163 5.17 5.17 0 00-5.163 5.163 5.17 5.17 0 005.163 5.163zm0-9.13a3.972 3.972 0 013.968 3.967 3.972 3.972 0 01-3.968 3.968 3.972 3.972 0 01-3.968-3.968 3.972 3.972 0 013.968-3.967z"/>
    <path
        d="M7.884 23.403a5.5 5.5 0 012.786.757.597.597 0 10.606-1.03A6.694 6.694 0 001.192 28.9c0 .33.268.597.598.597h7.578a.598.598 0 100-1.196H2.42a5.504 5.504 0 015.464-4.898zM7.778 21.253c2.2 0 3.992-1.79 3.992-3.992a3.996 3.996 0 00-3.992-3.991 3.996 3.996 0 00-3.991 3.991c0 2.2 1.79 3.992 3.991 3.992zm0-6.788a2.799 2.799 0 012.796 2.796 2.799 2.799 0 01-2.796 2.796 2.799 2.799 0 01-2.796-2.796 2.799 2.799 0 012.796-2.796zM31.31 22.207a6.7 6.7 0 00-3.391.922.597.597 0 10.605 1.03 5.502 5.502 0 012.787-.756 5.504 5.504 0 015.463 4.898h-6.947a.598.598 0 000 1.196h7.577c.33 0 .598-.268.598-.598a6.7 6.7 0 00-6.691-6.692zM31.417 21.253c2.2 0 3.991-1.79 3.991-3.992a3.996 3.996 0 00-3.991-3.991 3.996 3.996 0 00-3.992 3.991c0 2.2 1.79 3.992 3.992 3.992zm0-6.788a2.799 2.799 0 012.795 2.796 2.799 2.799 0 01-2.795 2.796 2.799 2.799 0 01-2.796-2.796 2.8 2.8 0 012.796-2.796z"/>
  </symbol>
  <symbol id="growth" viewBox="0 0 40 40">
    <g clip-path="url(#clip0)">
      <path
          d="M39.94 21.508l-1.224-2.761a.596.596 0 00-.803-.299l-3.25 1.523a.594.594 0 00-.287.793.6.6 0 00.797.285l1.72-.806-4.517 10.575-2.565-4.608a.6.6 0 00-1.069.043l-3.854 8.453-2.315-3.766a.602.602 0 00-1.05.054l-4.6 9.595a.594.594 0 00.54.852.598.598 0 00.54-.339l4.125-8.603 2.328 3.788a.6.6 0 001.056-.065l3.828-8.398 2.584 4.64a.6.6 0 001.074-.056l5.135-12.023.712 1.604a.599.599 0 001.095-.482zM16.633 18.317c4.067 0 7.377-3.293 7.377-7.342 0-4.048-3.31-7.342-7.377-7.342-4.066 0-7.374 3.294-7.374 7.342 0 4.049 3.308 7.342 7.374 7.342zm0-13.493c3.407 0 6.18 2.76 6.18 6.15 0 3.392-2.773 6.151-6.18 6.151-3.406 0-6.177-2.76-6.177-6.15 0-3.391 2.771-6.15 6.177-6.15zM17.048 33.423a.597.597 0 00-.598-.596H5.114c.313-6.394 5.637-11.5 12.137-11.5 3.01 0 5.897 1.103 8.131 3.107a.6.6 0 00.845-.044.594.594 0 00-.044-.84 13.355 13.355 0 00-8.932-3.415c-7.36 0-13.348 5.961-13.348 13.288 0 .33.268.596.598.596h11.95c.33 0 .597-.267.597-.596z"/>
    </g>
    <defs>
      <clipPath id="clip0">
        <path fill="#fff" d="M0 0h40v40H0z"/>
      </clipPath>
    </defs>
  </symbol>
  <symbol id="smile" viewBox="0 0 40 40">
    <path
        d="M19.898 2.082c-9.807 0-17.785 7.978-17.785 17.784 0 9.807 7.978 17.785 17.785 17.785s17.785-7.978 17.785-17.785c0-9.806-7.979-17.784-17.785-17.784zm0 34.373c-9.147 0-16.589-7.442-16.589-16.589 0-9.147 7.442-16.589 16.589-16.589 9.147 0 16.589 7.442 16.589 16.59 0 9.146-7.442 16.588-16.59 16.588z"/>
    <path
        d="M27.21 22.755H12.588a.598.598 0 00-.598.598c0 4.361 3.548 7.91 7.909 7.91 4.362 0 7.91-3.548 7.91-7.91a.598.598 0 00-.597-.598zm-7.312 7.312c-3.5 0-6.383-2.693-6.687-6.116h13.375c-.303 3.423-3.187 6.116-6.688 6.116zM15.575 14.531a2.928 2.928 0 00-2.925-2.924 2.928 2.928 0 00-2.924 2.924 2.928 2.928 0 002.924 2.925 2.928 2.928 0 002.925-2.925zm-4.653 0a1.73 1.73 0 011.728-1.728 1.73 1.73 0 011.73 1.728 1.73 1.73 0 01-1.73 1.73 1.73 1.73 0 01-1.728-1.73zM26.814 11.607a2.928 2.928 0 00-2.925 2.924 2.928 2.928 0 002.925 2.925 2.928 2.928 0 002.924-2.925 2.929 2.929 0 00-2.924-2.924zm0 4.653a1.73 1.73 0 01-1.73-1.729 1.73 1.73 0 011.73-1.728c.953 0 1.729.775 1.729 1.728 0 .954-.776 1.73-1.73 1.73z"/>
  </symbol>
  <symbol id="medicine" viewBox="0 0 40 40">
    <path
        d="M10.76 25.356h6.734v6.74c0 .334.27.605.605.605h3.662c.334 0 .604-.27.604-.604v-6.74H29.1c.334 0 .604-.271.604-.605v-3.66a.604.604 0 00-.604-.604h-6.735V13.75a.604.604 0 00-.604-.604h-3.662a.604.604 0 00-.605.604v6.738H10.76a.604.604 0 00-.604.604v3.66c0 .334.27.604.604.604zm.604-3.66h6.735c.334 0 .604-.27.604-.604v-6.738h2.454v6.738c0 .334.27.604.604.604h6.735v2.452h-6.735a.604.604 0 00-.604.604v6.74h-2.454v-6.74a.604.604 0 00-.604-.604h-6.735v-2.452z"/>
    <path
        d="M35.729 9.056h-5.683c-.23-2.978-2.256-5.315-4.714-5.315H14.527c-2.458 0-4.484 2.337-4.713 5.315H4.13a.604.604 0 00-.605.604v25.854c0 .334.27.604.605.604h31.598c.333 0 .604-.27.604-.604V9.66a.604.604 0 00-.604-.604zM14.527 4.95h10.805c1.8 0 3.288 1.796 3.5 4.106H11.027c.212-2.31 1.7-4.106 3.5-4.106zm20.598 29.96H4.735V10.264h30.39V34.91z"/>
  </symbol>
  <symbol id="result" viewBox="0 0 40 40">
    <path
        d="M23.378 6.838a.6.6 0 100 1.2c6.597 0 11.963 5.366 11.963 11.962s-5.366 11.962-11.963 11.962c-4.96 0-9.372-3.08-11.142-7.62l.798.354a.6.6 0 10.487-1.097l-2.051-.911a.6.6 0 00-.783.285l-.91 1.862a.6.6 0 001.079.526l.269-.55a13.192 13.192 0 0012.253 8.351c7.258 0 13.163-5.904 13.163-13.162 0-7.257-5.904-13.162-13.163-13.162z"/>
    <path
        d="M18.662 17.042v-7.64a.6.6 0 00-.6-.6H4.058a.6.6 0 00-.6.6v7.64a.6.6 0 00.6.6h14.004a.6.6 0 00.6-.6zm-1.2-.6H4.659v-6.44h12.803v6.44z"/>
    <path
        d="M11.06 15.373a2.154 2.154 0 002.152-2.151 2.154 2.154 0 00-2.152-2.151 2.154 2.154 0 00-2.15 2.151c0 1.186.964 2.151 2.15 2.151zm0-3.102a.952.952 0 010 1.902.952.952 0 010-1.902zM16.932 26.476a.598.598 0 00.849 0l5.902-5.907a.6.6 0 00.175-.424V11.61a.6.6 0 10-1.2 0v8.285l-5.727 5.73a.6.6 0 000 .85z"/>
  </symbol>
  <symbol id="facebook" viewBox="0 0 40 40">
    <path
        d="M17.358 35V21.582H13V16.25h4.358v-4.201C17.358 7.484 20.062 5 24.011 5c1.892 0 3.517.146 3.989.21v4.77h-2.739c-2.147 0-2.562 1.055-2.562 2.596v3.674h4.846l-.664 5.332h-4.182V35"/>
  </symbol>
  <symbol id="vk" viewBox="0 0 40 40">
    <path
        d="M35.27 11.289c.22-.742 0-1.288-1.057-1.288h-3.499c-.89 0-1.3.469-1.52.991 0 0-1.783 4.34-4.301 7.155-.814.813-1.188 1.074-1.634 1.074-.22 0-.558-.26-.558-1.003v-6.93c0-.89-.25-1.287-.986-1.287h-5.501c-.559 0-.891.415-.891.801 0 .843 1.259 1.04 1.39 3.414v5.154c0 1.128-.202 1.336-.648 1.336-1.188 0-4.075-4.358-5.786-9.346C9.935 10.392 9.596 10 8.7 10H5.2c-.998 0-1.2.47-1.2.992 0 .926 1.188 5.528 5.53 11.608C12.425 26.75 16.5 29 20.207 29c2.227 0 2.5-.498 2.5-1.36 0-3.965-.201-4.34.915-4.34.517 0 1.408.262 3.488 2.263C29.485 27.938 29.877 29 31.206 29h3.5c.997 0 1.502-.5 1.211-1.485-.665-2.072-5.162-6.335-5.364-6.62-.517-.665-.368-.962 0-1.556.006-.006 4.277-6.014 4.717-8.051z"/>
  </symbol>
  <symbol id="instagram" viewBox="0 0 40 40">
    <path
        d="M20.003 12.82A7.167 7.167 0 0012.825 20a7.167 7.167 0 007.178 7.178A7.167 7.167 0 0027.18 20a7.167 7.167 0 00-7.177-7.18zm0 11.847a4.675 4.675 0 01-4.667-4.668 4.671 4.671 0 014.667-4.667A4.671 4.671 0 0124.669 20a4.675 4.675 0 01-4.666 4.667zm9.145-12.14a1.67 1.67 0 01-1.674 1.675 1.674 1.674 0 111.674-1.675zm4.753 1.7c-.106-2.244-.618-4.23-2.261-5.867-1.637-1.637-3.623-2.15-5.866-2.262-2.31-.131-9.238-.131-11.55 0-2.236.106-4.222.618-5.865 2.255C6.716 9.99 6.21 11.977 6.098 14.22c-.131 2.312-.131 9.24 0 11.553.106 2.243.618 4.23 2.261 5.866 1.643 1.637 3.623 2.15 5.866 2.262 2.31.131 9.238.131 11.55 0 2.242-.106 4.228-.618 5.865-2.262 1.636-1.637 2.149-3.623 2.261-5.866.131-2.312.131-9.235 0-11.547zm-2.986 14.026a4.725 4.725 0 01-2.66 2.662c-1.843.73-6.216.562-8.252.562-2.037 0-6.415.162-8.252-.562a4.725 4.725 0 01-2.661-2.662c-.73-1.843-.562-6.217-.562-8.253 0-2.037-.163-6.417.562-8.254a4.724 4.724 0 012.661-2.662c1.843-.73 6.215-.562 8.252-.562 2.036 0 6.415-.162 8.251.562a4.725 4.725 0 012.661 2.662c.731 1.843.563 6.217.563 8.254 0 2.036.168 6.416-.563 8.253z"/>
  </symbol>
  <symbol id="arrow" viewBox="0 0 40 40">
    <path d="M32.391 14.474L38.207 20l-5.816 5.526M2.552 20H37.45" stroke="currentColor" stroke-width="2.5"
          stroke-linecap="round" stroke-linejoin="round"/>
  </symbol>
  <symbol id="play" viewBox="0 0 40 40" fill="none">
    <path d="M27.83 20.362l-13.16 6.216a.4.4 0 01-.57-.362V13.784a.4.4 0 01.57-.362l13.16 6.216a.4.4 0 010 .724z"
          stroke="currentColor" stroke-width="1.2"/>
    <circle cx="20" cy="20" r="19.4" stroke="currentColor" stroke-width="1.2"/>
  </symbol>
  <symbol id="menu" viewBox="0 0 40 40">
    <path fill-rule="evenodd" clip-rule="evenodd"
          d="M2.552 7a1.5 1.5 0 100 3H37.45a1.5 1.5 0 000-3H2.552zm-1.5 13.5a1.5 1.5 0 011.5-1.5H37.45a1.5 1.5 0 010 3H2.552a1.5 1.5 0 01-1.5-1.5zm0 12a1.5 1.5 0 011.5-1.5H37.45a1.5 1.5 0 010 3H2.552a1.5 1.5 0 01-1.5-1.5z"/>
  </symbol>
  <symbol id="cross" viewBox="0 0 40 40">
    <path fill-rule="evenodd" clip-rule="evenodd"
          d="M8.724 5.94a1.5 1.5 0 10-2.122 2.12L17.88 19.339 6.602 30.616a1.5 1.5 0 102.122 2.121L20 21.46 31.28 32.737a1.5 1.5 0 102.121-2.121L22.123 19.338 33.4 8.061A1.5 1.5 0 1031.28 5.94L20.002 17.217 8.723 5.94z"
    />
  </symbol>
  <symbol id="box-checked" fill="none" viewBox="0 0 40 40">
    <path d="M26.875 16.25L17.708 25l-4.583-4.375" stroke="currentColor" stroke-width="2" stroke-linecap="round"
          stroke-linejoin="round"/>
    <path
        d="M32.5 6.25h-25c-.69 0-1.25.56-1.25 1.25v25c0 .69.56 1.25 1.25 1.25h25c.69 0 1.25-.56 1.25-1.25v-25c0-.69-.56-1.25-1.25-1.25z"
        stroke="currentColor" stroke-width="2" stroke-linecap="round" stroke-linejoin="round"/>
  </symbol>
  <symbol id="box" fill="none" xmlns="http://www.w3.org/2000/svg" viewBox="0 0 40 40">
    <path
        d="M32.5 6.25h-25c-.69 0-1.25.56-1.25 1.25v25c0 .69.56 1.25 1.25 1.25h25c.69 0 1.25-.56 1.25-1.25v-25c0-.69-.56-1.25-1.25-1.25z"
        stroke="currentColor" stroke-width="2" stroke-linecap="round" stroke-linejoin="round"/>
  </symbol>
</svg>
